<mxfile host="app.diagrams.net" modified="2023-06-03T22:33:56.442Z" agent="Mozilla/5.0 (Windows NT 10.0; Win64; x64) AppleWebKit/537.36 (KHTML, like Gecko) Chrome/113.0.0.0 Safari/537.36" etag="2NR3caW4s9Np90Ln-K9_" version="21.3.7" type="device">
  <diagram name="Page-1" id="iyuF2I3DTUsjI1pjecBy">
    <mxGraphModel dx="1050" dy="549" grid="1" gridSize="10" guides="1" tooltips="1" connect="1" arrows="1" fold="1" page="1" pageScale="1" pageWidth="827" pageHeight="1169" math="0" shadow="0">
      <root>
        <mxCell id="0" />
        <mxCell id="1" parent="0" />
        <mxCell id="-hzc6o8-OI6XITFwpfGO-1" value="" style="ellipse;whiteSpace=wrap;html=1;" vertex="1" parent="1">
          <mxGeometry x="360" y="280" width="120" height="80" as="geometry" />
        </mxCell>
        <mxCell id="-hzc6o8-OI6XITFwpfGO-3" value="&lt;font style=&quot;font-size: 24px;&quot;&gt;موظفين&lt;/font&gt;" style="text;html=1;align=center;verticalAlign=middle;resizable=0;points=[];autosize=1;strokeColor=none;fillColor=none;" vertex="1" parent="1">
          <mxGeometry x="380" y="300" width="80" height="40" as="geometry" />
        </mxCell>
        <mxCell id="-hzc6o8-OI6XITFwpfGO-6" value="" style="ellipse;whiteSpace=wrap;html=1;" vertex="1" parent="1">
          <mxGeometry x="360" y="100" width="120" height="80" as="geometry" />
        </mxCell>
        <mxCell id="-hzc6o8-OI6XITFwpfGO-7" value="&lt;font style=&quot;font-size: 24px;&quot;&gt;الادارة&lt;/font&gt;" style="text;html=1;align=center;verticalAlign=middle;resizable=0;points=[];autosize=1;strokeColor=none;fillColor=none;" vertex="1" parent="1">
          <mxGeometry x="385" y="120" width="70" height="40" as="geometry" />
        </mxCell>
        <mxCell id="-hzc6o8-OI6XITFwpfGO-8" value="" style="ellipse;whiteSpace=wrap;html=1;" vertex="1" parent="1">
          <mxGeometry x="130" y="170" width="120" height="80" as="geometry" />
        </mxCell>
        <mxCell id="-hzc6o8-OI6XITFwpfGO-9" value="&lt;font style=&quot;font-size: 24px;&quot;&gt;مشاريع&lt;/font&gt;" style="text;html=1;align=center;verticalAlign=middle;resizable=0;points=[];autosize=1;strokeColor=none;fillColor=none;" vertex="1" parent="1">
          <mxGeometry x="150" y="190" width="80" height="40" as="geometry" />
        </mxCell>
        <mxCell id="-hzc6o8-OI6XITFwpfGO-10" value="" style="ellipse;whiteSpace=wrap;html=1;" vertex="1" parent="1">
          <mxGeometry x="440" y="400" width="120" height="80" as="geometry" />
        </mxCell>
        <mxCell id="-hzc6o8-OI6XITFwpfGO-11" value="&lt;font style=&quot;font-size: 27px;&quot;&gt;غياب&lt;/font&gt;" style="text;html=1;align=center;verticalAlign=middle;resizable=0;points=[];autosize=1;strokeColor=none;fillColor=none;" vertex="1" parent="1">
          <mxGeometry x="465" y="415" width="70" height="50" as="geometry" />
        </mxCell>
        <mxCell id="-hzc6o8-OI6XITFwpfGO-12" value="" style="ellipse;whiteSpace=wrap;html=1;" vertex="1" parent="1">
          <mxGeometry x="270" y="400" width="120" height="80" as="geometry" />
        </mxCell>
        <mxCell id="-hzc6o8-OI6XITFwpfGO-13" value="&lt;font style=&quot;font-size: 24px;&quot;&gt;خصم&lt;/font&gt;" style="text;html=1;align=center;verticalAlign=middle;resizable=0;points=[];autosize=1;strokeColor=none;fillColor=none;" vertex="1" parent="1">
          <mxGeometry x="300" y="420" width="60" height="40" as="geometry" />
        </mxCell>
        <mxCell id="-hzc6o8-OI6XITFwpfGO-14" value="" style="ellipse;whiteSpace=wrap;html=1;" vertex="1" parent="1">
          <mxGeometry x="90" y="420" width="120" height="80" as="geometry" />
        </mxCell>
        <mxCell id="-hzc6o8-OI6XITFwpfGO-15" value="&lt;font style=&quot;font-size: 24px;&quot;&gt;اضافي&lt;/font&gt;" style="text;html=1;align=center;verticalAlign=middle;resizable=0;points=[];autosize=1;strokeColor=none;fillColor=none;" vertex="1" parent="1">
          <mxGeometry x="115" y="440" width="70" height="40" as="geometry" />
        </mxCell>
        <mxCell id="-hzc6o8-OI6XITFwpfGO-17" value="" style="ellipse;whiteSpace=wrap;html=1;" vertex="1" parent="1">
          <mxGeometry x="610" y="175" width="120" height="80" as="geometry" />
        </mxCell>
        <mxCell id="-hzc6o8-OI6XITFwpfGO-18" value="&lt;font style=&quot;font-size: 24px;&quot;&gt;التقارير&lt;/font&gt;" style="text;html=1;align=center;verticalAlign=middle;resizable=0;points=[];autosize=1;strokeColor=none;fillColor=none;" vertex="1" parent="1">
          <mxGeometry x="630" y="195" width="80" height="40" as="geometry" />
        </mxCell>
        <mxCell id="-hzc6o8-OI6XITFwpfGO-19" value="" style="ellipse;whiteSpace=wrap;html=1;" vertex="1" parent="1">
          <mxGeometry x="240" y="530" width="120" height="80" as="geometry" />
        </mxCell>
        <mxCell id="-hzc6o8-OI6XITFwpfGO-20" value="&lt;font style=&quot;font-size: 24px;&quot;&gt;الخارج&lt;/font&gt;" style="text;html=1;align=center;verticalAlign=middle;resizable=0;points=[];autosize=1;strokeColor=none;fillColor=none;" vertex="1" parent="1">
          <mxGeometry x="260" y="550" width="80" height="40" as="geometry" />
        </mxCell>
        <mxCell id="-hzc6o8-OI6XITFwpfGO-21" value="" style="ellipse;whiteSpace=wrap;html=1;" vertex="1" parent="1">
          <mxGeometry x="490" y="520" width="120" height="80" as="geometry" />
        </mxCell>
        <mxCell id="-hzc6o8-OI6XITFwpfGO-22" value="&lt;font style=&quot;font-size: 24px;&quot;&gt;الداخل&lt;/font&gt;" style="text;html=1;align=center;verticalAlign=middle;resizable=0;points=[];autosize=1;strokeColor=none;fillColor=none;" vertex="1" parent="1">
          <mxGeometry x="515" y="540" width="70" height="40" as="geometry" />
        </mxCell>
        <mxCell id="-hzc6o8-OI6XITFwpfGO-23" value="" style="ellipse;whiteSpace=wrap;html=1;" vertex="1" parent="1">
          <mxGeometry x="394" y="40" width="40" height="30" as="geometry" />
        </mxCell>
        <mxCell id="-hzc6o8-OI6XITFwpfGO-24" value="&lt;font style=&quot;font-size: 15px;&quot;&gt;الاسم&lt;/font&gt;" style="text;html=1;align=center;verticalAlign=middle;resizable=0;points=[];autosize=1;strokeColor=none;fillColor=none;" vertex="1" parent="1">
          <mxGeometry x="389" y="40" width="50" height="30" as="geometry" />
        </mxCell>
        <mxCell id="-hzc6o8-OI6XITFwpfGO-25" value="" style="ellipse;whiteSpace=wrap;html=1;" vertex="1" parent="1">
          <mxGeometry x="445" y="60" width="40" height="30" as="geometry" />
        </mxCell>
        <mxCell id="-hzc6o8-OI6XITFwpfGO-26" value="&lt;font style=&quot;font-size: 15px;&quot;&gt;الرقم&lt;/font&gt;" style="text;html=1;align=center;verticalAlign=middle;resizable=0;points=[];autosize=1;strokeColor=none;fillColor=none;" vertex="1" parent="1">
          <mxGeometry x="440" y="60" width="50" height="30" as="geometry" />
        </mxCell>
        <mxCell id="-hzc6o8-OI6XITFwpfGO-27" value="" style="ellipse;whiteSpace=wrap;html=1;" vertex="1" parent="1">
          <mxGeometry x="600" y="400" width="120" height="80" as="geometry" />
        </mxCell>
        <mxCell id="-hzc6o8-OI6XITFwpfGO-28" value="&lt;font style=&quot;font-size: 24px;&quot;&gt;سلف&lt;/font&gt;" style="text;html=1;align=center;verticalAlign=middle;resizable=0;points=[];autosize=1;strokeColor=none;fillColor=none;" vertex="1" parent="1">
          <mxGeometry x="630" y="420" width="60" height="40" as="geometry" />
        </mxCell>
        <mxCell id="-hzc6o8-OI6XITFwpfGO-29" value="" style="ellipse;whiteSpace=wrap;html=1;" vertex="1" parent="1">
          <mxGeometry x="490" y="100" width="70" height="40" as="geometry" />
        </mxCell>
        <mxCell id="-hzc6o8-OI6XITFwpfGO-30" value="&lt;font style=&quot;font-size: 15px;&quot;&gt;كلمة السر&lt;/font&gt;" style="text;html=1;align=center;verticalAlign=middle;resizable=0;points=[];autosize=1;strokeColor=none;fillColor=none;" vertex="1" parent="1">
          <mxGeometry x="490" y="105" width="70" height="30" as="geometry" />
        </mxCell>
        <mxCell id="-hzc6o8-OI6XITFwpfGO-31" value="" style="ellipse;whiteSpace=wrap;html=1;" vertex="1" parent="1">
          <mxGeometry x="720" y="140" width="70" height="40" as="geometry" />
        </mxCell>
        <mxCell id="-hzc6o8-OI6XITFwpfGO-32" value="&lt;font style=&quot;font-size: 12px;&quot;&gt;created_at&lt;/font&gt;" style="text;html=1;align=center;verticalAlign=middle;resizable=0;points=[];autosize=1;strokeColor=none;fillColor=none;" vertex="1" parent="1">
          <mxGeometry x="715" y="145" width="80" height="30" as="geometry" />
        </mxCell>
        <mxCell id="-hzc6o8-OI6XITFwpfGO-33" value="" style="ellipse;whiteSpace=wrap;html=1;" vertex="1" parent="1">
          <mxGeometry x="635" y="120" width="70" height="40" as="geometry" />
        </mxCell>
        <mxCell id="-hzc6o8-OI6XITFwpfGO-34" value="وصف" style="text;html=1;align=center;verticalAlign=middle;resizable=0;points=[];autosize=1;strokeColor=none;fillColor=none;" vertex="1" parent="1">
          <mxGeometry x="645" y="125" width="50" height="30" as="geometry" />
        </mxCell>
        <mxCell id="-hzc6o8-OI6XITFwpfGO-35" value="" style="ellipse;whiteSpace=wrap;html=1;" vertex="1" parent="1">
          <mxGeometry x="190" y="125" width="40" height="30" as="geometry" />
        </mxCell>
        <mxCell id="-hzc6o8-OI6XITFwpfGO-36" value="&lt;font style=&quot;font-size: 13px;&quot;&gt;العربون&lt;/font&gt;" style="text;html=1;align=center;verticalAlign=middle;resizable=0;points=[];autosize=1;strokeColor=none;fillColor=none;" vertex="1" parent="1">
          <mxGeometry x="180" y="125" width="60" height="30" as="geometry" />
        </mxCell>
        <mxCell id="-hzc6o8-OI6XITFwpfGO-37" value="" style="ellipse;whiteSpace=wrap;html=1;" vertex="1" parent="1">
          <mxGeometry x="241" y="145" width="40" height="30" as="geometry" />
        </mxCell>
        <mxCell id="-hzc6o8-OI6XITFwpfGO-38" value="&lt;font style=&quot;font-size: 13px;&quot;&gt;الاجمالي&lt;/font&gt;" style="text;html=1;align=center;verticalAlign=middle;resizable=0;points=[];autosize=1;strokeColor=none;fillColor=none;" vertex="1" parent="1">
          <mxGeometry x="231" y="145" width="60" height="30" as="geometry" />
        </mxCell>
        <mxCell id="-hzc6o8-OI6XITFwpfGO-39" value="" style="ellipse;whiteSpace=wrap;html=1;" vertex="1" parent="1">
          <mxGeometry x="65" y="215" width="60" height="40" as="geometry" />
        </mxCell>
        <mxCell id="-hzc6o8-OI6XITFwpfGO-40" value="&lt;font style=&quot;font-size: 13px;&quot;&gt;تاريخ البدء&lt;/font&gt;" style="text;html=1;align=center;verticalAlign=middle;resizable=0;points=[];autosize=1;strokeColor=none;fillColor=none;" vertex="1" parent="1">
          <mxGeometry x="60" y="220" width="70" height="30" as="geometry" />
        </mxCell>
        <mxCell id="-hzc6o8-OI6XITFwpfGO-41" value="" style="ellipse;whiteSpace=wrap;html=1;" vertex="1" parent="1">
          <mxGeometry x="120" y="255" width="60" height="40" as="geometry" />
        </mxCell>
        <mxCell id="-hzc6o8-OI6XITFwpfGO-42" value="&lt;font style=&quot;font-size: 13px;&quot;&gt;النوع&lt;/font&gt;" style="text;html=1;align=center;verticalAlign=middle;resizable=0;points=[];autosize=1;strokeColor=none;fillColor=none;" vertex="1" parent="1">
          <mxGeometry x="130" y="260" width="40" height="30" as="geometry" />
        </mxCell>
        <mxCell id="-hzc6o8-OI6XITFwpfGO-43" value="" style="ellipse;whiteSpace=wrap;html=1;" vertex="1" parent="1">
          <mxGeometry x="75" y="140" width="60" height="40" as="geometry" />
        </mxCell>
        <mxCell id="-hzc6o8-OI6XITFwpfGO-44" value="&lt;font style=&quot;font-size: 13px;&quot;&gt;تاريخ التسليم&lt;/font&gt;" style="text;html=1;align=center;verticalAlign=middle;resizable=0;points=[];autosize=1;strokeColor=none;fillColor=none;" vertex="1" parent="1">
          <mxGeometry x="65" y="145" width="80" height="30" as="geometry" />
        </mxCell>
        <mxCell id="-hzc6o8-OI6XITFwpfGO-45" value="" style="ellipse;whiteSpace=wrap;html=1;" vertex="1" parent="1">
          <mxGeometry x="246" y="220" width="60" height="40" as="geometry" />
        </mxCell>
        <mxCell id="-hzc6o8-OI6XITFwpfGO-46" value="&lt;font style=&quot;font-size: 13px;&quot;&gt;اسم الزبون&lt;/font&gt;" style="text;html=1;align=center;verticalAlign=middle;resizable=0;points=[];autosize=1;strokeColor=none;fillColor=none;" vertex="1" parent="1">
          <mxGeometry x="241" y="225" width="70" height="30" as="geometry" />
        </mxCell>
        <mxCell id="-hzc6o8-OI6XITFwpfGO-47" value="" style="ellipse;whiteSpace=wrap;html=1;" vertex="1" parent="1">
          <mxGeometry x="195" y="260" width="60" height="40" as="geometry" />
        </mxCell>
        <mxCell id="-hzc6o8-OI6XITFwpfGO-48" value="&lt;font style=&quot;font-size: 13px;&quot;&gt;تليفون الزبون&lt;/font&gt;" style="text;html=1;align=center;verticalAlign=middle;resizable=0;points=[];autosize=1;strokeColor=none;fillColor=none;" vertex="1" parent="1">
          <mxGeometry x="185" y="265" width="80" height="30" as="geometry" />
        </mxCell>
        <mxCell id="-hzc6o8-OI6XITFwpfGO-49" value="" style="ellipse;whiteSpace=wrap;html=1;" vertex="1" parent="1">
          <mxGeometry x="425" y="245" width="40" height="30" as="geometry" />
        </mxCell>
        <mxCell id="-hzc6o8-OI6XITFwpfGO-50" value="&lt;font style=&quot;font-size: 15px;&quot;&gt;الاسم&lt;/font&gt;" style="text;html=1;align=center;verticalAlign=middle;resizable=0;points=[];autosize=1;strokeColor=none;fillColor=none;" vertex="1" parent="1">
          <mxGeometry x="420" y="245" width="50" height="30" as="geometry" />
        </mxCell>
        <mxCell id="-hzc6o8-OI6XITFwpfGO-51" value="" style="ellipse;whiteSpace=wrap;html=1;" vertex="1" parent="1">
          <mxGeometry x="476" y="265" width="40" height="30" as="geometry" />
        </mxCell>
        <mxCell id="-hzc6o8-OI6XITFwpfGO-52" value="&lt;font style=&quot;font-size: 15px;&quot;&gt;الرقم&lt;/font&gt;" style="text;html=1;align=center;verticalAlign=middle;resizable=0;points=[];autosize=1;strokeColor=none;fillColor=none;" vertex="1" parent="1">
          <mxGeometry x="471" y="265" width="50" height="30" as="geometry" />
        </mxCell>
        <mxCell id="-hzc6o8-OI6XITFwpfGO-54" value="" style="ellipse;whiteSpace=wrap;html=1;" vertex="1" parent="1">
          <mxGeometry x="490" y="310" width="40" height="30" as="geometry" />
        </mxCell>
        <mxCell id="-hzc6o8-OI6XITFwpfGO-55" value="&lt;font style=&quot;font-size: 15px;&quot;&gt;العنوان&lt;/font&gt;" style="text;html=1;align=center;verticalAlign=middle;resizable=0;points=[];autosize=1;strokeColor=none;fillColor=none;" vertex="1" parent="1">
          <mxGeometry x="480" y="310" width="60" height="30" as="geometry" />
        </mxCell>
        <mxCell id="-hzc6o8-OI6XITFwpfGO-57" value="" style="ellipse;whiteSpace=wrap;html=1;" vertex="1" parent="1">
          <mxGeometry x="470" y="350" width="40" height="30" as="geometry" />
        </mxCell>
        <mxCell id="-hzc6o8-OI6XITFwpfGO-58" value="&lt;font style=&quot;font-size: 15px;&quot;&gt;اليومية&lt;/font&gt;" style="text;html=1;align=center;verticalAlign=middle;resizable=0;points=[];autosize=1;strokeColor=none;fillColor=none;" vertex="1" parent="1">
          <mxGeometry x="460" y="350" width="60" height="30" as="geometry" />
        </mxCell>
        <mxCell id="-hzc6o8-OI6XITFwpfGO-60" value="" style="ellipse;whiteSpace=wrap;html=1;" vertex="1" parent="1">
          <mxGeometry x="605" y="590" width="40" height="30" as="geometry" />
        </mxCell>
        <mxCell id="-hzc6o8-OI6XITFwpfGO-61" value="&lt;font style=&quot;font-size: 15px;&quot;&gt;المبلغ&lt;/font&gt;" style="text;html=1;align=center;verticalAlign=middle;resizable=0;points=[];autosize=1;strokeColor=none;fillColor=none;" vertex="1" parent="1">
          <mxGeometry x="600" y="590" width="50" height="30" as="geometry" />
        </mxCell>
        <mxCell id="-hzc6o8-OI6XITFwpfGO-66" value="" style="ellipse;whiteSpace=wrap;html=1;" vertex="1" parent="1">
          <mxGeometry x="335" y="610" width="40" height="30" as="geometry" />
        </mxCell>
        <mxCell id="-hzc6o8-OI6XITFwpfGO-67" value="&lt;font style=&quot;font-size: 15px;&quot;&gt;المبلغ&lt;/font&gt;" style="text;html=1;align=center;verticalAlign=middle;resizable=0;points=[];autosize=1;strokeColor=none;fillColor=none;" vertex="1" parent="1">
          <mxGeometry x="330" y="610" width="50" height="30" as="geometry" />
        </mxCell>
        <mxCell id="-hzc6o8-OI6XITFwpfGO-68" value="" style="ellipse;whiteSpace=wrap;html=1;" vertex="1" parent="1">
          <mxGeometry x="80" y="500" width="40" height="30" as="geometry" />
        </mxCell>
        <mxCell id="-hzc6o8-OI6XITFwpfGO-69" value="&lt;font style=&quot;font-size: 15px;&quot;&gt;المبلغ&lt;/font&gt;" style="text;html=1;align=center;verticalAlign=middle;resizable=0;points=[];autosize=1;strokeColor=none;fillColor=none;" vertex="1" parent="1">
          <mxGeometry x="75" y="500" width="50" height="30" as="geometry" />
        </mxCell>
        <mxCell id="-hzc6o8-OI6XITFwpfGO-70" value="" style="ellipse;whiteSpace=wrap;html=1;" vertex="1" parent="1">
          <mxGeometry x="695" y="480" width="40" height="30" as="geometry" />
        </mxCell>
        <mxCell id="-hzc6o8-OI6XITFwpfGO-71" value="&lt;font style=&quot;font-size: 15px;&quot;&gt;المبلغ&lt;/font&gt;" style="text;html=1;align=center;verticalAlign=middle;resizable=0;points=[];autosize=1;strokeColor=none;fillColor=none;" vertex="1" parent="1">
          <mxGeometry x="690" y="480" width="50" height="30" as="geometry" />
        </mxCell>
        <mxCell id="-hzc6o8-OI6XITFwpfGO-72" value="" style="ellipse;whiteSpace=wrap;html=1;" vertex="1" parent="1">
          <mxGeometry x="365" y="480" width="40" height="30" as="geometry" />
        </mxCell>
        <mxCell id="-hzc6o8-OI6XITFwpfGO-73" value="&lt;font style=&quot;font-size: 15px;&quot;&gt;المبلغ&lt;/font&gt;" style="text;html=1;align=center;verticalAlign=middle;resizable=0;points=[];autosize=1;strokeColor=none;fillColor=none;" vertex="1" parent="1">
          <mxGeometry x="360" y="480" width="50" height="30" as="geometry" />
        </mxCell>
      </root>
    </mxGraphModel>
  </diagram>
</mxfile>
